<svg xmlns="http://www.w3.org/2000/svg" viewBox="0 0 594.76 298.39"><defs><style>.cls-1{fill:#fff;}</style></defs><title>Asset 1</title><g id="Layer_2" data-name="Layer 2"><g id="Layer_1-2" data-name="Layer 1"><path class="cls-1" d="M298.19,183.42a38.32,38.32,0,1,1,38.32-38.32A38.37,38.37,0,0,1,298.19,183.42Zm0-63.87a25.55,25.55,0,1,0,25.55,25.55A25.58,25.58,0,0,0,298.19,119.55Z"/><path class="cls-1" d="M191.61,145.1a6.39,6.39,0,0,1-6.39,6.39H147a6.39,6.39,0,1,1,0-12.77h31a25.55,25.55,0,1,0-24.74,31.93,25.23,25.23,0,0,0,15.32-5.11,6.39,6.39,0,1,1,7.68,10.22,38.33,38.33,0,1,1,15.32-30.66Z"/><path class="cls-1" d="M210.77,183.42a6.39,6.39,0,0,1-6.39-6.39V138.71a31.94,31.94,0,0,1,47.91-27.66,6.39,6.39,0,0,1-6.39,11.06,19.17,19.17,0,0,0-28.74,16.6V177A6.39,6.39,0,0,1,210.77,183.42Z"/><path class="cls-1" d="M40.88,175.74A12.78,12.78,0,0,0,51.1,196.2a51.1,51.1,0,1,1-35.76,14.6,6.39,6.39,0,0,1,8.94,9.13A38.32,38.32,0,1,0,51.1,209,25.56,25.56,0,0,1,32,166.4a38.3,38.3,0,0,1,31.84-59.62H95.81a6.39,6.39,0,1,1,0,12.77H63.87A25.51,25.51,0,1,0,87.3,134.88,6.39,6.39,0,0,1,99,129.77a38.32,38.32,0,0,1-58.12,46Z"/><path class="cls-1" d="M448,293.59A147.34,147.34,0,0,1,320.82,220.2a3.2,3.2,0,1,1,5.54-3.21A140.93,140.93,0,0,0,448,287.19c77.41,0,140.39-63,140.39-140.39S525.38,6.4,448,6.4A140.93,140.93,0,0,0,326.36,76.59a3.2,3.2,0,1,1-5.54-3.21A147.35,147.35,0,0,1,448,0c80.94,0,146.79,65.85,146.79,146.79S528.91,293.59,448,293.59Z"/><path class="cls-1" d="M448.19,183.42a33.14,33.14,0,0,1-30.55-20.76c-4.13-10-3.9-22,.67-34.79,5.17-14.5,15.71-29.78,31.34-45.4a2.66,2.66,0,0,1,3.76,3.76c-15.06,15.06-25.19,29.68-30.09,43.43-4.11,11.54-4.38,22.25-.76,31a27.84,27.84,0,0,0,25.63,17.48c13.46,0,24.41-12.12,24.41-27s-11-27-24.41-27a23,23,0,0,0-15.12,5.81,2.66,2.66,0,0,1-3.5-4,28.36,28.36,0,0,1,18.63-7.12c16.39,0,29.73,14.51,29.73,32.34S464.59,183.42,448.19,183.42Z"/><path class="cls-1" d="M521.69,183.42c-16.67,0-34.48-10.92-34.48-41.55s17.81-41.63,34.48-41.63,34.48,10.94,34.48,41.63S538.36,183.42,521.69,183.42Zm0-77.87c-18.26,0-29.16,13.58-29.16,36.32s10.9,36.23,29.16,36.23,29.17-13.54,29.17-36.23S540,105.56,521.69,105.56Z"/><path class="cls-1" d="M371.28,199.9c-13.13,0-25.72-6.83-31.25-18.16a2.66,2.66,0,1,1,4.78-2.33c6.18,12.67,23,18.59,37.53,13.21s21.11-20.59,15.59-35.46c-4.26-11.46-16.27-17.7-29.9-15.52a2.66,2.66,0,0,1-2.44-4.35L391,107.52H346.69a2.66,2.66,0,0,1,0-5.32h50a2.66,2.66,0,0,1,2,4.38l-25,29.28c13.41.13,24.7,7.43,29.15,19.42,6.57,17.71-1.47,35.89-18.72,42.3A37.09,37.09,0,0,1,371.28,199.9Z"/></g></g></svg>